<svg xmlns="http://www.w3.org/2000/svg" xmlns:xlink="http://www.w3.org/1999/xlink" width="500" zoomAndPan="magnify" viewBox="0 0 375 374.999991" height="500" preserveAspectRatio="xMidYMid meet" version="1.0"><defs><clipPath id="c631541c81"><path d="M 113.453125 113 L 256 113 L 256 257 L 113.453125 257 Z M 113.453125 113 " clip-rule="nonzero"/></clipPath></defs><path fill="#000000" d="M 245.546875 183.128906 C 245.546875 185.15625 245.445312 187.175781 245.246094 189.191406 C 245.050781 191.207031 244.753906 193.207031 244.359375 195.191406 C 243.960938 197.175781 243.472656 199.140625 242.882812 201.078125 C 242.296875 203.015625 241.613281 204.917969 240.839844 206.789062 C 240.066406 208.660156 239.199219 210.488281 238.246094 212.273438 C 237.292969 214.058594 236.25 215.792969 235.125 217.476562 C 234.003906 219.160156 232.796875 220.785156 231.511719 222.347656 C 230.226562 223.914062 228.871094 225.414062 227.4375 226.84375 C 226.007812 228.277344 224.507812 229.632812 222.945312 230.917969 C 221.378906 232.203125 219.753906 233.40625 218.070312 234.53125 C 216.386719 235.65625 214.652344 236.695312 212.867188 237.652344 C 211.082031 238.605469 209.253906 239.46875 207.382812 240.246094 C 205.511719 241.019531 203.609375 241.703125 201.671875 242.289062 C 199.734375 242.875 197.769531 243.367188 195.785156 243.761719 C 193.800781 244.15625 191.800781 244.453125 189.785156 244.652344 C 187.769531 244.851562 185.75 244.949219 183.726562 244.949219 C 181.699219 244.949219 179.679688 244.851562 177.664062 244.652344 C 175.652344 244.453125 173.652344 244.15625 171.664062 243.761719 C 169.679688 243.367188 167.71875 242.875 165.78125 242.289062 C 163.84375 241.703125 161.9375 241.019531 160.066406 240.246094 C 158.195312 239.46875 156.367188 238.605469 154.582031 237.652344 C 152.796875 236.695312 151.0625 235.65625 149.378906 234.53125 C 147.695312 233.40625 146.070312 232.203125 144.507812 230.917969 C 142.941406 229.632812 141.441406 228.277344 140.011719 226.84375 C 138.578125 225.414062 137.222656 223.914062 135.9375 222.347656 C 134.652344 220.785156 133.449219 219.160156 132.324219 217.476562 C 131.199219 215.792969 130.160156 214.058594 129.203125 212.273438 C 128.25 210.488281 127.386719 208.660156 126.609375 206.789062 C 125.835938 204.917969 125.15625 203.015625 124.566406 201.078125 C 123.980469 199.140625 123.488281 197.175781 123.09375 195.191406 C 122.699219 193.207031 122.402344 191.207031 122.203125 189.191406 C 122.003906 187.175781 121.90625 185.15625 121.90625 183.128906 C 121.90625 181.105469 122.003906 179.085938 122.203125 177.070312 C 122.402344 175.054688 122.699219 173.054688 123.09375 171.070312 C 123.488281 169.085938 123.980469 167.121094 124.566406 165.183594 C 125.15625 163.246094 125.835938 161.34375 126.609375 159.472656 C 127.386719 157.601562 128.25 155.773438 129.203125 153.988281 C 130.160156 152.203125 131.199219 150.46875 132.324219 148.785156 C 133.449219 147.101562 134.652344 145.476562 135.9375 143.914062 C 137.222656 142.347656 138.578125 140.847656 140.011719 139.417969 C 141.441406 137.984375 142.941406 136.628906 144.507812 135.34375 C 146.070312 134.058594 147.695312 132.855469 149.378906 131.730469 C 151.0625 130.605469 152.796875 129.566406 154.582031 128.609375 C 156.367188 127.65625 158.195312 126.792969 160.066406 126.015625 C 161.9375 125.242188 163.84375 124.558594 165.78125 123.972656 C 167.71875 123.382812 169.679688 122.894531 171.664062 122.5 C 173.652344 122.101562 175.652344 121.804688 177.664062 121.609375 C 179.679688 121.410156 181.699219 121.308594 183.726562 121.308594 C 185.75 121.308594 187.769531 121.410156 189.785156 121.609375 C 191.800781 121.804688 193.800781 122.101562 195.785156 122.5 C 197.769531 122.894531 199.734375 123.382812 201.671875 123.972656 C 203.609375 124.558594 205.511719 125.242188 207.382812 126.015625 C 209.253906 126.792969 211.082031 127.65625 212.867188 128.609375 C 214.652344 129.566406 216.386719 130.605469 218.070312 131.730469 C 219.753906 132.855469 221.378906 134.058594 222.945312 135.34375 C 224.507812 136.628906 226.007812 137.984375 227.4375 139.417969 C 228.871094 140.847656 230.226562 142.347656 231.511719 143.914062 C 232.796875 145.476562 234.003906 147.101562 235.125 148.785156 C 236.25 150.46875 237.292969 152.203125 238.246094 153.988281 C 239.199219 155.773438 240.066406 157.601562 240.839844 159.472656 C 241.613281 161.34375 242.296875 163.246094 242.882812 165.183594 C 243.472656 167.121094 243.960938 169.085938 244.359375 171.070312 C 244.753906 173.054688 245.050781 175.054688 245.246094 177.070312 C 245.445312 179.085938 245.546875 181.105469 245.546875 183.128906 Z M 245.546875 183.128906 " fill-opacity="1" fill-rule="nonzero"/><g clip-path="url(#c631541c81)"><path fill="#38a37f" d="M 237.996094 138.097656 C 237.113281 137.089844 236.199219 136.109375 235.261719 135.152344 C 234.320312 134.195312 233.355469 133.265625 232.363281 132.367188 C 231.371094 131.464844 230.355469 130.589844 229.3125 129.746094 C 228.273438 128.902344 227.207031 128.089844 226.121094 127.304688 C 225.03125 126.519531 223.921875 125.769531 222.792969 125.046875 C 221.664062 124.324219 220.515625 123.636719 219.34375 122.980469 C 218.175781 122.324219 216.988281 121.703125 215.785156 121.113281 C 214.582031 120.523438 213.359375 119.96875 212.125 119.449219 C 210.890625 118.929688 209.640625 118.445312 208.375 117.996094 C 207.113281 117.546875 205.839844 117.132812 204.550781 116.753906 C 203.265625 116.378906 201.96875 116.035156 200.664062 115.734375 C 199.359375 115.429688 198.042969 115.164062 196.722656 114.933594 C 195.402344 114.703125 194.074219 114.511719 192.746094 114.355469 C 191.414062 114.203125 190.078125 114.085938 188.738281 114.007812 C 187.402344 113.925781 186.0625 113.886719 184.722656 113.882812 C 183.378906 113.878906 182.039062 113.914062 180.703125 113.988281 C 179.363281 114.058594 178.027344 114.167969 176.695312 114.316406 C 175.363281 114.464844 174.035156 114.652344 172.714844 114.875 C 171.390625 115.097656 170.078125 115.359375 168.769531 115.65625 C 167.460938 115.953125 166.164062 116.289062 164.875 116.660156 C 163.585938 117.03125 162.3125 117.4375 161.046875 117.878906 C 159.78125 118.324219 158.527344 118.800781 157.289062 119.316406 C 156.050781 119.832031 154.828125 120.378906 153.621094 120.960938 C 152.414062 121.546875 151.226562 122.164062 150.054688 122.8125 C 148.882812 123.464844 147.726562 124.148438 146.59375 124.863281 C 145.460938 125.578125 144.347656 126.324219 143.257812 127.105469 C 142.164062 127.882812 141.097656 128.691406 140.050781 129.53125 C 139.007812 130.371094 137.984375 131.238281 136.988281 132.136719 C 135.992188 133.03125 135.023438 133.957031 134.078125 134.910156 C 133.132812 135.859375 132.21875 136.839844 131.328125 137.84375 C 130.441406 138.847656 129.578125 139.875 128.75 140.925781 C 127.917969 141.980469 127.117188 143.054688 126.347656 144.152344 C 124.738281 146.441406 123.269531 148.8125 121.933594 151.273438 C 119.433594 155.914062 117.476562 160.777344 116.066406 165.855469 C 114.65625 170.933594 113.820312 176.109375 113.566406 181.375 C 113.511719 182.574219 113.472656 183.78125 113.472656 184.988281 C 113.472656 186.421875 113.515625 187.851562 113.601562 189.277344 C 113.6875 190.707031 113.816406 192.132812 113.988281 193.550781 C 114.160156 194.972656 114.375 196.386719 114.632812 197.792969 C 114.890625 199.203125 115.1875 200.601562 115.53125 201.992188 C 115.871094 203.378906 116.257812 204.757812 116.679688 206.125 C 117.105469 207.492188 117.570312 208.84375 118.078125 210.179688 C 118.585938 211.519531 119.132812 212.839844 119.71875 214.148438 C 120.304688 215.453125 120.929688 216.738281 121.59375 218.007812 C 122.257812 219.273438 122.957031 220.519531 123.699219 221.746094 C 124.4375 222.96875 125.210938 224.171875 126.023438 225.351562 C 126.835938 226.527344 127.683594 227.683594 128.5625 228.808594 C 129.445312 229.9375 130.359375 231.035156 131.308594 232.109375 C 132.253906 233.179688 133.234375 234.222656 134.246094 235.234375 C 135.253906 236.25 136.296875 237.230469 137.367188 238.179688 C 138.4375 239.132812 139.535156 240.046875 140.660156 240.933594 C 141.785156 241.816406 142.933594 242.664062 144.113281 243.480469 C 145.289062 244.292969 146.488281 245.074219 147.710938 245.8125 C 148.933594 246.554688 150.179688 247.261719 151.445312 247.925781 C 152.710938 248.59375 153.996094 249.222656 155.300781 249.8125 C 156.605469 250.402344 157.925781 250.949219 159.261719 251.460938 C 160.601562 251.96875 161.949219 252.4375 163.316406 252.867188 C 164.683594 253.292969 166.058594 253.679688 167.449219 254.027344 C 168.835938 254.371094 170.234375 254.675781 171.640625 254.933594 C 173.046875 255.195312 174.460938 255.414062 175.882812 255.589844 C 177.300781 255.761719 178.726562 255.894531 180.15625 255.984375 C 181.582031 256.074219 183.011719 256.121094 184.445312 256.125 C 185.875 256.125 187.304688 256.085938 188.734375 256.003906 C 190.160156 255.917969 191.585938 255.792969 193.007812 255.625 C 194.425781 255.453125 195.84375 255.242188 197.25 254.988281 C 198.660156 254.734375 200.058594 254.433594 201.449219 254.097656 C 202.835938 253.757812 204.214844 253.375 205.582031 252.953125 C 206.949219 252.53125 208.304688 252.066406 209.644531 251.5625 C 210.980469 251.058594 212.304688 250.515625 213.613281 249.933594 C 214.917969 249.347656 216.207031 248.726562 217.472656 248.0625 C 218.742188 247.402344 219.992188 246.703125 221.21875 245.964844 C 222.445312 245.230469 223.648438 244.457031 224.828125 243.644531 C 226.007812 242.835938 227.160156 241.992188 228.289062 241.113281 C 229.417969 240.234375 230.519531 239.320312 231.59375 238.375 C 232.667969 237.429688 233.710938 236.453125 234.726562 235.441406 C 235.742188 234.433594 236.726562 233.394531 237.675781 232.328125 C 238.628906 231.257812 239.550781 230.164062 240.433594 229.039062 C 241.320312 227.914062 242.171875 226.765625 242.988281 225.589844 C 243.804688 224.417969 244.585938 223.21875 245.328125 221.996094 C 246.074219 220.773438 246.78125 219.53125 247.449219 218.265625 C 248.121094 217 248.75 215.714844 249.339844 214.414062 C 249.933594 213.109375 250.484375 211.792969 250.996094 210.453125 C 251.507812 209.117188 251.980469 207.769531 252.410156 206.402344 C 252.839844 205.039062 253.230469 203.664062 253.578125 202.273438 C 253.925781 200.886719 254.230469 199.488281 254.492188 198.082031 C 254.757812 196.675781 254.976562 195.261719 255.15625 193.84375 C 255.332031 192.421875 255.46875 191 255.558594 189.570312 C 255.652344 188.144531 255.699219 186.714844 255.707031 185.28125 C 255.710938 183.851562 255.671875 182.421875 255.59375 180.992188 C 255.511719 179.566406 255.386719 178.140625 255.222656 176.71875 C 255.054688 175.296875 254.84375 173.882812 254.59375 172.472656 C 254.339844 171.066406 254.046875 169.664062 253.710938 168.273438 C 253.375 166.882812 252.996094 165.503906 252.574219 164.136719 C 252.15625 162.769531 251.695312 161.414062 251.191406 160.074219 C 250.691406 158.734375 250.148438 157.410156 249.566406 156.101562 C 248.984375 154.796875 248.367188 153.507812 247.707031 152.238281 C 247.046875 150.96875 246.351562 149.71875 245.617188 148.492188 C 244.878906 147.261719 244.109375 146.058594 243.300781 144.875 C 242.496094 143.695312 241.652344 142.539062 240.773438 141.410156 C 239.898438 140.277344 238.988281 139.175781 238.042969 138.097656 Z M 160.835938 194.808594 C 166.84375 199.027344 172.46875 201.554688 178.277344 202.496094 L 178.277344 191.21875 C 163.179688 187.75 155.492188 182.601562 155.492188 170.972656 L 155.492188 170.785156 C 155.492188 159.722656 163.5625 152.035156 177.90625 151.003906 L 177.90625 145.65625 L 187.65625 145.65625 L 187.65625 151.28125 C 191.207031 151.652344 194.65625 152.457031 198.003906 153.699219 C 201.351562 154.9375 204.492188 156.570312 207.429688 158.597656 L 199.742188 171.15625 C 195.902344 168.519531 191.714844 166.660156 187.183594 165.578125 L 187.183594 176.457031 C 202.058594 179.921875 209.585938 185.269531 209.585938 196.90625 L 209.585938 197.09375 C 209.585938 208.527344 200.773438 215.554688 187.460938 216.785156 L 187.460938 225.96875 L 177.71875 225.96875 L 177.71875 216.53125 C 173.171875 216.097656 168.753906 215.089844 164.464844 213.515625 C 160.175781 211.941406 156.15625 209.847656 152.40625 207.234375 Z M 160.835938 194.808594 " fill-opacity="1" fill-rule="nonzero"/></g><path fill="#38a37f" d="M 193.375 198.253906 L 193.375 198.070312 C 193.375 195.53125 191.960938 194.128906 187.089844 192.722656 L 187.089844 203.035156 C 191.402344 202.570312 193.375 200.96875 193.375 198.253906 Z M 193.375 198.253906 " fill-opacity="1" fill-rule="nonzero"/><path fill="#38a37f" d="M 178.371094 164.6875 C 173.777344 165.066406 171.992188 166.945312 171.992188 169.382812 L 171.992188 169.566406 C 171.992188 172.003906 173.3125 173.40625 178.371094 174.820312 Z M 178.371094 164.6875 " fill-opacity="1" fill-rule="nonzero"/></svg>