<svg xmlns="http://www.w3.org/2000/svg" xmlns:xlink="http://www.w3.org/1999/xlink" width="500" zoomAndPan="magnify" viewBox="0 0 375 374.999991" height="500" preserveAspectRatio="xMidYMid meet" version="1.0"><defs><g/><clipPath id="a8a7a7c1e8"><path d="M 37.5 133.929688 L 150 133.929688 L 150 246.429688 L 37.5 246.429688 Z M 37.5 133.929688 " clip-rule="nonzero"/></clipPath><clipPath id="1cf1431114"><path d="M 93.75 133.929688 C 62.683594 133.929688 37.5 159.113281 37.5 190.179688 C 37.5 221.246094 62.683594 246.429688 93.75 246.429688 C 124.816406 246.429688 150 221.246094 150 190.179688 C 150 159.113281 124.816406 133.929688 93.75 133.929688 Z M 93.75 133.929688 " clip-rule="nonzero"/></clipPath><clipPath id="ba36ed8522"><path d="M 224.105469 132.589844 L 336.605469 132.589844 L 336.605469 245.089844 L 224.105469 245.089844 Z M 224.105469 132.589844 " clip-rule="nonzero"/></clipPath><clipPath id="b3696e2061"><path d="M 280.355469 132.589844 C 249.292969 132.589844 224.105469 157.773438 224.105469 188.839844 C 224.105469 219.90625 249.292969 245.089844 280.355469 245.089844 C 311.421875 245.089844 336.605469 219.90625 336.605469 188.839844 C 336.605469 157.773438 311.421875 132.589844 280.355469 132.589844 Z M 280.355469 132.589844 " clip-rule="nonzero"/></clipPath><clipPath id="1637725da7"><path d="M 76.558594 174.066406 L 111 174.066406 L 111 201 L 76.558594 201 Z M 76.558594 174.066406 " clip-rule="nonzero"/></clipPath><clipPath id="02bf8e6af1"><path d="M 263.046875 177 L 297.546875 177 L 297.546875 203.605469 L 263.046875 203.605469 Z M 263.046875 177 " clip-rule="nonzero"/></clipPath></defs><g clip-path="url(#a8a7a7c1e8)"><g clip-path="url(#1cf1431114)"><path fill="#e6e5ee" d="M 37.5 133.929688 L 150 133.929688 L 150 246.429688 L 37.5 246.429688 Z M 37.5 133.929688 " fill-opacity="1" fill-rule="nonzero"/></g></g><g clip-path="url(#ba36ed8522)"><g clip-path="url(#b3696e2061)"><path fill="#e6e5ee" d="M 224.105469 132.589844 L 336.605469 132.589844 L 336.605469 245.089844 L 224.105469 245.089844 Z M 224.105469 132.589844 " fill-opacity="1" fill-rule="nonzero"/></g></g><g clip-path="url(#1637725da7)"><path fill="#6154ff" d="M 110.105469 186.507812 L 98.847656 175.402344 C 97.378906 174.148438 96.585938 174.648438 95.75 175.480469 C 94.917969 176.316406 95.648438 177.808594 96.550781 178.570312 L 102.722656 184.828125 C 102.722656 184.828125 103.257812 185.363281 102.273438 185.363281 L 78.777344 185.363281 C 77.597656 185.363281 76.558594 186.316406 76.558594 187.496094 C 76.558594 188.675781 77.597656 189.632812 78.777344 189.632812 L 102.273438 189.632812 C 103.257812 189.632812 102.722656 190.167969 102.722656 190.167969 L 96.550781 196.425781 C 95.648438 197.1875 94.917969 198.679688 95.75 199.511719 C 96.585938 200.347656 97.378906 200.84375 98.847656 199.59375 L 110.105469 188.488281 C 110.933594 187.644531 110.933594 187.347656 110.105469 186.507812 Z M 110.105469 186.507812 " fill-opacity="1" fill-rule="nonzero"/></g><g fill="#a6a6a6" fill-opacity="1"><g transform="translate(184.497664, 156.52499)"><g><path d="M -1.015625 3.875 L -1.015625 0 L -0.4375 0 L -0.4375 3.875 Z M -1.015625 3.875 "/></g></g><g transform="translate(184.497664, 160.396571)"><g><path d="M -1.015625 3.875 L -1.015625 0 L -0.4375 0 L -0.4375 3.875 Z M -1.015625 3.875 "/></g></g><g transform="translate(184.497664, 164.268153)"><g><path d="M -1.015625 3.875 L -1.015625 0 L -0.4375 0 L -0.4375 3.875 Z M -1.015625 3.875 "/></g></g><g transform="translate(184.497664, 168.139735)"><g><path d="M -1.015625 3.875 L -1.015625 0 L -0.4375 0 L -0.4375 3.875 Z M -1.015625 3.875 "/></g></g><g transform="translate(184.497664, 172.011317)"><g><path d="M -1.015625 3.875 L -1.015625 0 L -0.4375 0 L -0.4375 3.875 Z M -1.015625 3.875 "/></g></g><g transform="translate(184.497664, 175.882899)"><g><path d="M -1.015625 3.875 L -1.015625 0 L -0.4375 0 L -0.4375 3.875 Z M -1.015625 3.875 "/></g></g><g transform="translate(184.497664, 179.75448)"><g><path d="M -1.015625 3.875 L -1.015625 0 L -0.4375 0 L -0.4375 3.875 Z M -1.015625 3.875 "/></g></g><g transform="translate(184.497664, 183.626062)"><g><path d="M -1.015625 3.875 L -1.015625 0 L -0.4375 0 L -0.4375 3.875 Z M -1.015625 3.875 "/></g></g><g transform="translate(184.497664, 187.497644)"><g><path d="M -1.015625 3.875 L -1.015625 0 L -0.4375 0 L -0.4375 3.875 Z M -1.015625 3.875 "/></g></g><g transform="translate(184.497664, 191.369226)"><g><path d="M -1.015625 3.875 L -1.015625 0 L -0.4375 0 L -0.4375 3.875 Z M -1.015625 3.875 "/></g></g><g transform="translate(184.497664, 195.240807)"><g><path d="M -1.015625 3.875 L -1.015625 0 L -0.4375 0 L -0.4375 3.875 Z M -1.015625 3.875 "/></g></g><g transform="translate(184.497664, 199.112389)"><g><path d="M -1.015625 3.875 L -1.015625 0 L -0.4375 0 L -0.4375 3.875 Z M -1.015625 3.875 "/></g></g><g transform="translate(184.497664, 202.983971)"><g><path d="M -1.015625 3.875 L -1.015625 0 L -0.4375 0 L -0.4375 3.875 Z M -1.015625 3.875 "/></g></g><g transform="translate(184.497664, 206.855553)"><g><path d="M -1.015625 3.875 L -1.015625 0 L -0.4375 0 L -0.4375 3.875 Z M -1.015625 3.875 "/></g></g><g transform="translate(184.497664, 210.727134)"><g><path d="M -1.015625 3.875 L -1.015625 0 L -0.4375 0 L -0.4375 3.875 Z M -1.015625 3.875 "/></g></g><g transform="translate(184.497664, 214.598716)"><g><path d="M -1.015625 3.875 L -1.015625 0 L -0.4375 0 L -0.4375 3.875 Z M -1.015625 3.875 "/></g></g></g><g clip-path="url(#02bf8e6af1)"><path fill="#6154ff" d="M 263.996094 191.164062 L 275.257812 202.269531 C 276.726562 203.523438 277.519531 203.027344 278.351562 202.191406 C 279.1875 201.355469 278.453125 199.867188 277.554688 199.105469 L 271.378906 192.84375 C 271.378906 192.84375 270.84375 192.3125 271.828125 192.3125 L 295.324219 192.3125 C 296.507812 192.3125 297.546875 191.355469 297.546875 190.175781 C 297.546875 188.996094 296.507812 188.039062 295.324219 188.039062 L 271.828125 188.039062 C 270.84375 188.039062 271.378906 187.507812 271.378906 187.507812 L 277.554688 181.246094 C 278.453125 180.484375 279.1875 178.992188 278.351562 178.160156 C 277.519531 177.328125 276.726562 176.828125 275.257812 178.082031 L 263.996094 189.1875 C 263.171875 190.027344 263.171875 190.324219 263.996094 191.164062 Z M 263.996094 191.164062 " fill-opacity="1" fill-rule="nonzero"/></g></svg>