<svg xmlns="http://www.w3.org/2000/svg" xmlns:xlink="http://www.w3.org/1999/xlink" width="500" zoomAndPan="magnify" viewBox="0 0 375 374.999991" height="500" preserveAspectRatio="xMidYMid meet" version="1.0"><defs><g/><clipPath id="bcbc0ff990"><path d="M 37.5 133.929688 L 150 133.929688 L 150 246.429688 L 37.5 246.429688 Z M 37.5 133.929688 " clip-rule="nonzero"/></clipPath><clipPath id="ede5fc6a75"><path d="M 93.75 133.929688 C 62.683594 133.929688 37.5 159.113281 37.5 190.179688 C 37.5 221.246094 62.683594 246.429688 93.75 246.429688 C 124.816406 246.429688 150 221.246094 150 190.179688 C 150 159.113281 124.816406 133.929688 93.75 133.929688 Z M 93.75 133.929688 " clip-rule="nonzero"/></clipPath><clipPath id="1cc1e1c313"><path d="M 224.105469 132.589844 L 336.605469 132.589844 L 336.605469 245.089844 L 224.105469 245.089844 Z M 224.105469 132.589844 " clip-rule="nonzero"/></clipPath><clipPath id="903ef7aa3b"><path d="M 280.355469 132.589844 C 249.292969 132.589844 224.105469 157.773438 224.105469 188.839844 C 224.105469 219.90625 249.292969 245.089844 280.355469 245.089844 C 311.421875 245.089844 336.605469 219.90625 336.605469 188.839844 C 336.605469 157.773438 311.421875 132.589844 280.355469 132.589844 Z M 280.355469 132.589844 " clip-rule="nonzero"/></clipPath><clipPath id="aa13cda2a3"><path d="M 263.164062 174.066406 L 297.664062 174.066406 L 297.664062 201 L 263.164062 201 Z M 263.164062 174.066406 " clip-rule="nonzero"/></clipPath><clipPath id="92826a5fd3"><path d="M 76.441406 174 L 110.941406 174 L 110.941406 200.925781 L 76.441406 200.925781 Z M 76.441406 174 " clip-rule="nonzero"/></clipPath></defs><g clip-path="url(#bcbc0ff990)"><g clip-path="url(#ede5fc6a75)"><path fill="#eeedf4" d="M 37.5 133.929688 L 150 133.929688 L 150 246.429688 L 37.5 246.429688 Z M 37.5 133.929688 " fill-opacity="1" fill-rule="nonzero"/></g></g><g clip-path="url(#1cc1e1c313)"><g clip-path="url(#903ef7aa3b)"><path fill="#eeedf4" d="M 224.105469 132.589844 L 336.605469 132.589844 L 336.605469 245.089844 L 224.105469 245.089844 Z M 224.105469 132.589844 " fill-opacity="1" fill-rule="nonzero"/></g></g><g clip-path="url(#aa13cda2a3)"><path fill="#6154ff" d="M 296.714844 186.507812 L 285.453125 175.402344 C 283.984375 174.148438 283.191406 174.648438 282.359375 175.480469 C 281.523438 176.316406 282.257812 177.808594 283.15625 178.570312 L 289.332031 184.828125 C 289.332031 184.828125 289.867188 185.363281 288.882812 185.363281 L 265.382812 185.363281 C 264.203125 185.363281 263.164062 186.316406 263.164062 187.496094 C 263.164062 188.675781 264.203125 189.632812 265.382812 189.632812 L 288.882812 189.632812 C 289.867188 189.632812 289.332031 190.167969 289.332031 190.167969 L 283.15625 196.425781 C 282.257812 197.1875 281.523438 198.679688 282.359375 199.511719 C 283.191406 200.347656 283.984375 200.84375 285.453125 199.59375 L 296.714844 188.488281 C 297.539062 187.644531 297.539062 187.347656 296.714844 186.507812 Z M 296.714844 186.507812 " fill-opacity="1" fill-rule="nonzero"/></g><g fill="#a6a6a6" fill-opacity="1"><g transform="translate(184.497664, 156.52499)"><g><path d="M -1.015625 3.875 L -1.015625 0 L -0.4375 0 L -0.4375 3.875 Z M -1.015625 3.875 "/></g></g><g transform="translate(184.497664, 160.396571)"><g><path d="M -1.015625 3.875 L -1.015625 0 L -0.4375 0 L -0.4375 3.875 Z M -1.015625 3.875 "/></g></g><g transform="translate(184.497664, 164.268153)"><g><path d="M -1.015625 3.875 L -1.015625 0 L -0.4375 0 L -0.4375 3.875 Z M -1.015625 3.875 "/></g></g><g transform="translate(184.497664, 168.139735)"><g><path d="M -1.015625 3.875 L -1.015625 0 L -0.4375 0 L -0.4375 3.875 Z M -1.015625 3.875 "/></g></g><g transform="translate(184.497664, 172.011317)"><g><path d="M -1.015625 3.875 L -1.015625 0 L -0.4375 0 L -0.4375 3.875 Z M -1.015625 3.875 "/></g></g><g transform="translate(184.497664, 175.882899)"><g><path d="M -1.015625 3.875 L -1.015625 0 L -0.4375 0 L -0.4375 3.875 Z M -1.015625 3.875 "/></g></g><g transform="translate(184.497664, 179.75448)"><g><path d="M -1.015625 3.875 L -1.015625 0 L -0.4375 0 L -0.4375 3.875 Z M -1.015625 3.875 "/></g></g><g transform="translate(184.497664, 183.626062)"><g><path d="M -1.015625 3.875 L -1.015625 0 L -0.4375 0 L -0.4375 3.875 Z M -1.015625 3.875 "/></g></g><g transform="translate(184.497664, 187.497644)"><g><path d="M -1.015625 3.875 L -1.015625 0 L -0.4375 0 L -0.4375 3.875 Z M -1.015625 3.875 "/></g></g><g transform="translate(184.497664, 191.369226)"><g><path d="M -1.015625 3.875 L -1.015625 0 L -0.4375 0 L -0.4375 3.875 Z M -1.015625 3.875 "/></g></g><g transform="translate(184.497664, 195.240807)"><g><path d="M -1.015625 3.875 L -1.015625 0 L -0.4375 0 L -0.4375 3.875 Z M -1.015625 3.875 "/></g></g><g transform="translate(184.497664, 199.112389)"><g><path d="M -1.015625 3.875 L -1.015625 0 L -0.4375 0 L -0.4375 3.875 Z M -1.015625 3.875 "/></g></g><g transform="translate(184.497664, 202.983971)"><g><path d="M -1.015625 3.875 L -1.015625 0 L -0.4375 0 L -0.4375 3.875 Z M -1.015625 3.875 "/></g></g><g transform="translate(184.497664, 206.855553)"><g><path d="M -1.015625 3.875 L -1.015625 0 L -0.4375 0 L -0.4375 3.875 Z M -1.015625 3.875 "/></g></g><g transform="translate(184.497664, 210.727134)"><g><path d="M -1.015625 3.875 L -1.015625 0 L -0.4375 0 L -0.4375 3.875 Z M -1.015625 3.875 "/></g></g><g transform="translate(184.497664, 214.598716)"><g><path d="M -1.015625 3.875 L -1.015625 0 L -0.4375 0 L -0.4375 3.875 Z M -1.015625 3.875 "/></g></g></g><g clip-path="url(#92826a5fd3)"><path fill="#6154ff" d="M 77.390625 188.488281 L 88.652344 199.59375 C 90.117188 200.84375 90.910156 200.347656 91.746094 199.511719 C 92.578125 198.679688 91.847656 197.1875 90.945312 196.425781 L 84.773438 190.167969 C 84.773438 190.167969 84.238281 189.632812 85.222656 189.632812 L 108.71875 189.632812 C 109.898438 189.632812 110.941406 188.675781 110.941406 187.496094 C 110.941406 186.316406 109.898438 185.363281 108.71875 185.363281 L 85.222656 185.363281 C 84.238281 185.363281 84.773438 184.828125 84.773438 184.828125 L 90.945312 178.570312 C 91.847656 177.808594 92.578125 176.316406 91.746094 175.480469 C 90.910156 174.648438 90.117188 174.148438 88.652344 175.402344 L 77.390625 186.507812 C 76.5625 187.347656 76.5625 187.644531 77.390625 188.488281 Z M 77.390625 188.488281 " fill-opacity="1" fill-rule="nonzero"/></g></svg>