<svg xmlns="http://www.w3.org/2000/svg" xmlns:xlink="http://www.w3.org/1999/xlink" width="500" zoomAndPan="magnify" viewBox="0 0 375 374.999991" height="500" preserveAspectRatio="xMidYMid meet" version="1.0"><defs><clipPath id="0894b4c456"><path d="M 8.308594 6.703125 L 369.808594 6.703125 L 369.808594 368.203125 L 8.308594 368.203125 Z M 8.308594 6.703125 " clip-rule="nonzero"/></clipPath><clipPath id="d9d5050a8a"><path d="M 138.546875 80.507812 L 239.796875 80.507812 L 239.796875 294.257812 L 138.546875 294.257812 Z M 138.546875 80.507812 " clip-rule="nonzero"/></clipPath></defs><g clip-path="url(#0894b4c456)"><path fill="#ffffff" d="M 189.097656 368.285156 C 288.945312 368.285156 369.890625 287.34375 369.890625 187.496094 C 369.890625 87.648438 288.945312 6.703125 189.097656 6.703125 C 89.25 6.703125 8.308594 87.648438 8.308594 187.496094 C 8.308594 287.34375 89.25 368.285156 189.097656 368.285156 Z M 189.097656 368.285156 " fill-opacity="1" fill-rule="nonzero"/></g><g clip-path="url(#d9d5050a8a)"><path fill="#000000" d="M 216.324219 116.003906 L 239.644531 116.003906 L 239.644531 80.839844 L 209.863281 80.839844 L 209.863281 80.976562 C 170.707031 82.410156 162.632812 104.34375 161.960938 127.53125 L 161.871094 127.53125 L 161.871094 151.933594 L 138.546875 151.933594 L 138.546875 187.140625 L 161.871094 187.140625 L 161.871094 294.160156 L 203.71875 294.160156 L 203.71875 187.140625 L 233.726562 187.140625 L 239.644531 151.933594 L 203.71875 151.933594 L 203.71875 130.089844 C 203.71875 122.328125 208.921875 116.003906 216.324219 116.003906 Z M 216.324219 116.003906 " fill-opacity="1" fill-rule="nonzero"/></g></svg>