<svg xmlns="http://www.w3.org/2000/svg" xmlns:xlink="http://www.w3.org/1999/xlink" width="500" zoomAndPan="magnify" viewBox="0 0 375 374.999991" height="500" preserveAspectRatio="xMidYMid meet" version="1.0"><defs><clipPath id="c6c9baafc0"><path d="M 112.5 112.5 L 262.5 112.5 L 262.5 262.5 L 112.5 262.5 Z M 112.5 112.5 " clip-rule="nonzero"/></clipPath><clipPath id="5577871224"><path d="M 169.78125 150 L 205.03125 150 L 205.03125 225 L 169.78125 225 Z M 169.78125 150 " clip-rule="nonzero"/></clipPath></defs><g clip-path="url(#c6c9baafc0)"><path fill="#ffffff" d="M 187.5 262.5 C 228.921875 262.5 262.5 228.921875 262.5 187.5 C 262.5 146.078125 228.921875 112.5 187.5 112.5 C 146.078125 112.5 112.5 146.078125 112.5 187.5 C 112.5 228.921875 146.078125 262.5 187.5 262.5 Z M 187.5 262.5 " fill-opacity="1" fill-rule="nonzero"/></g><g clip-path="url(#5577871224)"><path fill="#000000" d="M 197.042969 162.4375 L 205.21875 162.4375 L 205.21875 150.113281 L 194.78125 150.113281 L 194.78125 150.160156 C 181.054688 150.664062 178.222656 158.351562 177.988281 166.480469 L 177.957031 166.480469 L 177.957031 175.03125 L 169.78125 175.03125 L 169.78125 187.375 L 177.957031 187.375 L 177.957031 224.886719 L 192.625 224.886719 L 192.625 187.375 L 203.144531 187.375 L 205.21875 175.03125 L 192.625 175.03125 L 192.625 167.375 C 192.625 164.65625 194.449219 162.4375 197.042969 162.4375 Z M 197.042969 162.4375 " fill-opacity="1" fill-rule="nonzero"/></g></svg>