<svg xmlns="http://www.w3.org/2000/svg" xmlns:xlink="http://www.w3.org/1999/xlink" width="500" zoomAndPan="magnify" viewBox="0 0 375 374.999991" height="500" preserveAspectRatio="xMidYMid meet" version="1.0"><defs><clipPath id="3c48744233"><path d="M 143.972656 144.644531 L 231.027344 144.644531 L 231.027344 230.355469 L 143.972656 230.355469 Z M 143.972656 144.644531 " clip-rule="nonzero"/></clipPath><clipPath id="7d389571cf"><path d="M 171.507812 167.414062 L 203.757812 167.414062 L 203.757812 207.914062 L 171.507812 207.914062 Z M 171.507812 167.414062 " clip-rule="nonzero"/></clipPath></defs><g clip-path="url(#3c48744233)"><path fill="#ffffff" d="M 143.972656 144.644531 L 231.027344 144.644531 L 231.027344 230.355469 L 143.972656 230.355469 Z M 143.972656 144.644531 " fill-opacity="1" fill-rule="nonzero"/></g><g clip-path="url(#7d389571cf)"><path fill="#6154ff" d="M 190.691406 207.574219 L 184.300781 207.574219 C 183.796875 207.574219 183.390625 207.164062 183.390625 206.660156 L 183.390625 173.804688 L 172.4375 173.804688 C 171.933594 173.804688 171.523438 173.394531 171.523438 172.890625 L 171.523438 168.328125 C 171.523438 167.824219 171.933594 167.414062 172.4375 167.414062 L 202.558594 167.414062 C 203.0625 167.414062 203.46875 167.824219 203.46875 168.328125 L 203.46875 172.890625 C 203.46875 173.394531 203.0625 173.804688 202.558594 173.804688 L 191.605469 173.804688 L 191.605469 206.660156 C 191.605469 207.164062 191.195312 207.574219 190.691406 207.574219 Z M 190.691406 207.574219 " fill-opacity="1" fill-rule="nonzero"/></g></svg>