<svg xmlns="http://www.w3.org/2000/svg" xmlns:xlink="http://www.w3.org/1999/xlink" width="500" zoomAndPan="magnify" viewBox="0 0 375 374.999991" height="500" preserveAspectRatio="xMidYMid meet" version="1.0"><defs><clipPath id="c2582f4747"><path d="M 112.5 112.5 L 262.5 112.5 L 262.5 262.5 L 112.5 262.5 Z M 112.5 112.5 " clip-rule="nonzero"/></clipPath><clipPath id="615fd0f8a0"><path d="M 173 143.773438 L 199 143.773438 L 199 177 L 173 177 Z M 173 143.773438 " clip-rule="nonzero"/></clipPath><clipPath id="706a140e62"><path d="M 141.832031 145 L 233.167969 145 L 233.167969 209 L 141.832031 209 Z M 141.832031 145 " clip-rule="nonzero"/></clipPath></defs><g clip-path="url(#c2582f4747)"><path fill="#ffffff" d="M 187.5 262.5 C 228.921875 262.5 262.5 228.921875 262.5 187.5 C 262.5 146.078125 228.921875 112.5 187.5 112.5 C 146.078125 112.5 112.5 146.078125 112.5 187.5 C 112.5 228.921875 146.078125 262.5 187.5 262.5 Z M 187.5 262.5 " fill-opacity="1" fill-rule="nonzero"/></g><g clip-path="url(#615fd0f8a0)"><path fill="#000000" d="M 195.664062 176.335938 C 187.171875 174.769531 180.140625 170.949219 174.671875 164.945312 C 173.421875 158.476562 173.175781 151.34375 174.742188 143.824219 C 174.742188 143.824219 178.363281 165.140625 198.527344 173.398438 C 197.617188 174.3125 196.667969 175.292969 195.664062 176.335938 " fill-opacity="1" fill-rule="nonzero"/></g><g clip-path="url(#706a140e62)"><path fill="#000000" d="M 173.097656 190.648438 C 167.050781 181.140625 159.445312 164.613281 163.40625 145.648438 C 163.40625 145.648438 168.050781 172.996094 196.121094 177.738281 C 200.226562 173.464844 203.351562 170.304688 206.3125 168.289062 C 205.511719 167.21875 204.800781 165.546875 205.128906 163.109375 C 205.128906 163.109375 206.339844 166.480469 210.742188 166.113281 C 211.789062 165.808594 212.859375 165.648438 213.996094 165.625 C 221.464844 165.484375 224.824219 173.886719 224.824219 173.886719 C 230.300781 173.628906 233.167969 177.277344 233.167969 177.277344 C 222.265625 177.054688 215.660156 185.902344 210.675781 193.917969 C 187.5 231.1875 141.832031 187.070312 141.832031 187.070312 C 154.957031 191.113281 165.160156 191.816406 173.097656 190.648438 " fill-opacity="1" fill-rule="nonzero"/></g></svg>