<svg xmlns="http://www.w3.org/2000/svg" xmlns:xlink="http://www.w3.org/1999/xlink" width="500" zoomAndPan="magnify" viewBox="0 0 375 374.999991" height="500" preserveAspectRatio="xMidYMid meet" version="1.0"><defs><clipPath id="9791139297"><path d="M 112.5 112.5 L 262.5 112.5 L 262.5 262.5 L 112.5 262.5 Z M 112.5 112.5 " clip-rule="nonzero"/></clipPath><clipPath id="12165eb1f0"><path d="M 150.214844 159.535156 L 224.464844 159.535156 L 224.464844 215.785156 L 150.214844 215.785156 Z M 150.214844 159.535156 " clip-rule="nonzero"/></clipPath></defs><g clip-path="url(#9791139297)"><path fill="#ffffff" d="M 187.5 262.5 C 228.921875 262.5 262.5 228.921875 262.5 187.5 C 262.5 146.078125 228.921875 112.5 187.5 112.5 C 146.078125 112.5 112.5 146.078125 112.5 187.5 C 112.5 228.921875 146.078125 262.5 187.5 262.5 Z M 187.5 262.5 " fill-opacity="1" fill-rule="nonzero"/></g><g clip-path="url(#12165eb1f0)"><path fill="#000000" d="M 161.867188 159.535156 L 213.128906 159.535156 C 213.894531 159.535156 214.652344 159.609375 215.402344 159.757812 C 216.152344 159.910156 216.878906 160.128906 217.585938 160.421875 C 218.292969 160.714844 218.964844 161.074219 219.601562 161.5 C 220.238281 161.925781 220.824219 162.40625 221.367188 162.949219 C 221.90625 163.488281 222.390625 164.078125 222.816406 164.714844 C 223.242188 165.347656 223.597656 166.019531 223.890625 166.726562 C 224.183594 167.433594 224.40625 168.164062 224.554688 168.914062 C 224.703125 169.664062 224.777344 170.421875 224.777344 171.1875 L 224.777344 203.808594 C 224.777344 204.570312 224.703125 205.328125 224.554688 206.078125 C 224.40625 206.832031 224.183594 207.558594 223.890625 208.265625 C 223.597656 208.972656 223.242188 209.644531 222.816406 210.28125 C 222.390625 210.914062 221.90625 211.503906 221.367188 212.046875 C 220.824219 212.585938 220.238281 213.070312 219.601562 213.492188 C 218.964844 213.917969 218.292969 214.277344 217.585938 214.570312 C 216.878906 214.863281 216.152344 215.085938 215.402344 215.234375 C 214.652344 215.382812 213.894531 215.457031 213.128906 215.457031 L 161.867188 215.457031 C 161.101562 215.457031 160.34375 215.382812 159.59375 215.234375 C 158.84375 215.085938 158.113281 214.863281 157.410156 214.570312 C 156.703125 214.277344 156.03125 213.917969 155.394531 213.492188 C 154.757812 213.070312 154.167969 212.585938 153.628906 212.046875 C 153.085938 211.503906 152.605469 210.914062 152.179688 210.28125 C 151.753906 209.644531 151.394531 208.972656 151.101562 208.265625 C 150.808594 207.558594 150.589844 206.832031 150.441406 206.078125 C 150.289062 205.328125 150.214844 204.570312 150.214844 203.808594 L 150.214844 171.1875 C 150.214844 170.421875 150.289062 169.664062 150.441406 168.914062 C 150.589844 168.164062 150.808594 167.433594 151.101562 166.726562 C 151.394531 166.019531 151.753906 165.347656 152.179688 164.714844 C 152.605469 164.078125 153.085938 163.488281 153.628906 162.949219 C 154.167969 162.40625 154.757812 161.925781 155.394531 161.5 C 156.03125 161.074219 156.703125 160.714844 157.410156 160.421875 C 158.113281 160.128906 158.84375 159.910156 159.59375 159.757812 C 160.34375 159.609375 161.101562 159.535156 161.867188 159.535156 Z M 161.867188 159.535156 " fill-opacity="1" fill-rule="nonzero"/></g><path fill="#fafafa" d="M 200.191406 185.414062 L 176.890625 173.761719 C 176.714844 173.675781 176.527344 173.609375 176.332031 173.566406 C 176.140625 173.527344 175.941406 173.507812 175.742188 173.519531 C 175.546875 173.527344 175.351562 173.5625 175.160156 173.621094 C 174.972656 173.679688 174.792969 173.757812 174.621094 173.863281 C 174.453125 173.96875 174.300781 174.09375 174.164062 174.234375 C 174.027344 174.378906 173.910156 174.539062 173.8125 174.710938 C 173.714844 174.882812 173.640625 175.066406 173.59375 175.261719 C 173.542969 175.453125 173.515625 175.648438 173.515625 175.847656 L 173.515625 199.148438 C 173.515625 199.34375 173.542969 199.542969 173.59375 199.734375 C 173.640625 199.925781 173.714844 200.109375 173.8125 200.28125 C 173.910156 200.457031 174.027344 200.613281 174.164062 200.757812 C 174.300781 200.902344 174.453125 201.023438 174.621094 201.128906 C 174.792969 201.234375 174.972656 201.316406 175.160156 201.375 C 175.351562 201.433594 175.546875 201.464844 175.742188 201.476562 C 175.941406 201.484375 176.140625 201.46875 176.332031 201.425781 C 176.527344 201.382812 176.714844 201.320312 176.890625 201.230469 L 200.191406 189.578125 C 200.585938 189.382812 200.902344 189.097656 201.132812 188.71875 C 201.367188 188.34375 201.484375 187.9375 201.484375 187.496094 C 201.484375 187.050781 201.367188 186.644531 201.132812 186.269531 C 200.902344 185.890625 200.585938 185.605469 200.191406 185.410156 Z M 200.191406 185.414062 " fill-opacity="1" fill-rule="nonzero"/></svg>