<svg xmlns="http://www.w3.org/2000/svg" xmlns:xlink="http://www.w3.org/1999/xlink" width="500" zoomAndPan="magnify" viewBox="0 0 375 374.999991" height="500" preserveAspectRatio="xMidYMid meet" version="1.0"><defs><clipPath id="b219222fb3"><path d="M 8.308594 6.703125 L 369.808594 6.703125 L 369.808594 368.203125 L 8.308594 368.203125 Z M 8.308594 6.703125 " clip-rule="nonzero"/></clipPath><clipPath id="29f7824f81"><path d="M 121.816406 137.035156 L 256.066406 137.035156 L 256.066406 238 L 121.816406 238 Z M 121.816406 137.035156 " clip-rule="nonzero"/></clipPath></defs><g clip-path="url(#b219222fb3)"><path fill="#ffffff" d="M 189.097656 368.285156 C 288.945312 368.285156 369.890625 287.34375 369.890625 187.496094 C 369.890625 87.648438 288.945312 6.703125 189.097656 6.703125 C 89.25 6.703125 8.308594 87.648438 8.308594 187.496094 C 8.308594 287.34375 89.25 368.285156 189.097656 368.285156 Z M 189.097656 368.285156 " fill-opacity="1" fill-rule="nonzero"/></g><g clip-path="url(#29f7824f81)"><path fill="#000000" d="M 142.84375 137.035156 L 235.355469 137.035156 C 236.042969 137.035156 236.730469 137.070312 237.417969 137.136719 C 238.101562 137.203125 238.78125 137.304688 239.457031 137.441406 C 240.132812 137.574219 240.800781 137.742188 241.457031 137.941406 C 242.117188 138.140625 242.765625 138.371094 243.402344 138.636719 C 244.039062 138.898438 244.660156 139.195312 245.265625 139.519531 C 245.875 139.84375 246.464844 140.195312 247.035156 140.578125 C 247.609375 140.960938 248.160156 141.371094 248.695312 141.808594 C 249.226562 142.246094 249.734375 142.707031 250.222656 143.195312 C 250.710938 143.679688 251.171875 144.191406 251.609375 144.722656 C 252.046875 145.253906 252.453125 145.808594 252.835938 146.378906 C 253.21875 146.953125 253.574219 147.542969 253.898438 148.148438 C 254.222656 148.757812 254.515625 149.378906 254.78125 150.015625 C 255.042969 150.652344 255.277344 151.296875 255.476562 151.957031 C 255.675781 152.617188 255.84375 153.285156 255.976562 153.960938 C 256.109375 154.632812 256.210938 155.316406 256.28125 156 C 256.347656 156.683594 256.378906 157.371094 256.378906 158.0625 L 256.378906 216.933594 C 256.378906 217.621094 256.347656 218.308594 256.28125 218.992188 C 256.210938 219.679688 256.109375 220.359375 255.976562 221.035156 C 255.84375 221.710938 255.675781 222.375 255.476562 223.035156 C 255.277344 223.695312 255.042969 224.34375 254.78125 224.976562 C 254.515625 225.613281 254.222656 226.234375 253.898438 226.84375 C 253.574219 227.449219 253.21875 228.039062 252.835938 228.613281 C 252.453125 229.1875 252.046875 229.738281 251.609375 230.269531 C 251.171875 230.804688 250.710938 231.3125 250.222656 231.800781 C 249.734375 232.285156 249.226562 232.75 248.695312 233.183594 C 248.160156 233.621094 247.609375 234.03125 247.035156 234.414062 C 246.464844 234.796875 245.875 235.148438 245.265625 235.476562 C 244.660156 235.800781 244.039062 236.09375 243.402344 236.355469 C 242.765625 236.621094 242.117188 236.851562 241.457031 237.050781 C 240.800781 237.253906 240.132812 237.417969 239.457031 237.554688 C 238.78125 237.6875 238.101562 237.789062 237.417969 237.855469 C 236.730469 237.921875 236.042969 237.957031 235.355469 237.957031 L 142.84375 237.957031 C 142.15625 237.957031 141.46875 237.921875 140.78125 237.855469 C 140.097656 237.789062 139.417969 237.6875 138.742188 237.554688 C 138.066406 237.417969 137.398438 237.253906 136.742188 237.050781 C 136.082031 236.851562 135.433594 236.621094 134.796875 236.355469 C 134.160156 236.09375 133.539062 235.800781 132.933594 235.476562 C 132.324219 235.148438 131.734375 234.796875 131.164062 234.414062 C 130.589844 234.03125 130.039062 233.621094 129.503906 233.183594 C 128.972656 232.75 128.464844 232.285156 127.976562 231.800781 C 127.488281 231.3125 127.027344 230.804688 126.589844 230.269531 C 126.152344 229.738281 125.746094 229.1875 125.363281 228.613281 C 124.980469 228.039062 124.625 227.449219 124.300781 226.84375 C 123.976562 226.234375 123.683594 225.613281 123.417969 224.976562 C 123.15625 224.34375 122.921875 223.695312 122.722656 223.035156 C 122.523438 222.375 122.355469 221.710938 122.222656 221.035156 C 122.089844 220.359375 121.988281 219.679688 121.917969 218.992188 C 121.851562 218.308594 121.816406 217.621094 121.816406 216.933594 L 121.816406 158.0625 C 121.816406 157.371094 121.851562 156.683594 121.917969 156 C 121.988281 155.316406 122.089844 154.632812 122.222656 153.960938 C 122.355469 153.285156 122.523438 152.617188 122.722656 151.957031 C 122.921875 151.296875 123.15625 150.652344 123.417969 150.015625 C 123.683594 149.378906 123.976562 148.757812 124.300781 148.148438 C 124.625 147.542969 124.980469 146.953125 125.363281 146.378906 C 125.746094 145.808594 126.152344 145.253906 126.589844 144.722656 C 127.027344 144.191406 127.488281 143.679688 127.976562 143.195312 C 128.464844 142.707031 128.972656 142.246094 129.503906 141.808594 C 130.039062 141.371094 130.589844 140.960938 131.164062 140.578125 C 131.734375 140.195312 132.324219 139.84375 132.933594 139.519531 C 133.539062 139.195312 134.160156 138.898438 134.796875 138.636719 C 135.433594 138.371094 136.082031 138.140625 136.742188 137.941406 C 137.398438 137.742188 138.066406 137.574219 138.742188 137.441406 C 139.417969 137.304688 140.097656 137.203125 140.78125 137.136719 C 141.46875 137.070312 142.15625 137.035156 142.84375 137.035156 Z M 142.84375 137.035156 " fill-opacity="1" fill-rule="nonzero"/></g><path fill="#fafafa" d="M 212.007812 183.738281 L 169.957031 162.710938 C 169.636719 162.550781 169.300781 162.433594 168.953125 162.359375 C 168.601562 162.285156 168.246094 162.253906 167.886719 162.269531 C 167.53125 162.285156 167.179688 162.347656 166.835938 162.453125 C 166.492188 162.558594 166.171875 162.703125 165.863281 162.894531 C 165.558594 163.082031 165.285156 163.304688 165.035156 163.566406 C 164.789062 163.824219 164.578125 164.109375 164.402344 164.421875 C 164.226562 164.734375 164.09375 165.066406 164.003906 165.414062 C 163.914062 165.761719 163.867188 166.113281 163.867188 166.472656 L 163.867188 208.523438 C 163.867188 208.878906 163.914062 209.234375 164.003906 209.582031 C 164.09375 209.925781 164.226562 210.257812 164.402344 210.570312 C 164.578125 210.882812 164.789062 211.167969 165.035156 211.429688 C 165.285156 211.6875 165.558594 211.910156 165.863281 212.101562 C 166.171875 212.289062 166.492188 212.433594 166.835938 212.539062 C 167.179688 212.644531 167.53125 212.707031 167.886719 212.722656 C 168.246094 212.738281 168.601562 212.710938 168.953125 212.632812 C 169.300781 212.558594 169.636719 212.441406 169.957031 212.28125 L 212.007812 191.257812 C 212.722656 190.898438 213.289062 190.382812 213.707031 189.707031 C 214.128906 189.027344 214.339844 188.289062 214.339844 187.492188 C 214.339844 186.695312 214.128906 185.957031 213.707031 185.28125 C 213.289062 184.601562 212.722656 184.085938 212.007812 183.730469 Z M 212.007812 183.738281 " fill-opacity="1" fill-rule="nonzero"/></svg>